<svg width="800" height="600" viewBox="0 0 800 600" fill="none" xmlns="http://www.w3.org/2000/svg">
  <rect width="800" height="600" fill="#FAFAFB"/>
  
  <!-- Sidebar -->
  <rect x="0" y="0" width="220" height="600" fill="#F0F0F3"/>
  <rect x="0" y="0" width="220" height="600" fill="#EEEEF2"/>
  
  <!-- Sidebar header -->
  <rect x="16" y="16" width="80" height="8" rx="4" fill="#C7C7D1"/>
  <rect x="16" y="36" width="120" height="8" rx="4" fill="#C7C7D1"/>
  
  <!-- Search bar -->
  <rect x="12" y="60" width="196" height="28" rx="6" fill="#FFFFFF" stroke="#E0E0E6" stroke-width="1"/>
  <rect x="24" y="69" width="10" height="10" rx="5" fill="#C7C7D1"/>
  <rect x="42" y="71" width="50" height="6" rx="3" fill="#C7C7D1"/>
  
  <!-- Sidebar items -->
  <rect x="12" y="102" width="196" height="32" rx="6" fill="#E3E3E9"/>
  <rect x="22" y="110" width="16" height="16" rx="4" fill="#C7C7D1"/>
  <rect x="46" y="113" width="80" height="8" rx="4" fill="#8B8B9E"/>
  
  <rect x="12" y="142" width="196" height="32" rx="6" fill="transparent"/>
  <rect x="38" y="150" width="16" height="16" rx="4" fill="#C7C7D1"/>
  <rect x="62" y="153" width="90" height="8" rx="4" fill="#A0A0B2"/>
  
  <rect x="12" y="182" width="196" height="32" rx="6" fill="transparent"/>
  <rect x="38" y="190" width="16" height="16" rx="4" fill="#C7C7D1"/>
  <rect x="62" y="193" width="60" height="8" rx="4" fill="#A0A0B2"/>
  
  <rect x="12" y="222" width="196" height="32" rx="6" fill="transparent"/>
  <rect x="22" y="230" width="16" height="16" rx="4" fill="#C7C7D1"/>
  <rect x="46" y="233" width="110" height="8" rx="4" fill="#A0A0B2"/>
  
  <rect x="12" y="262" width="196" height="32" rx="6" fill="transparent"/>
  <rect x="38" y="270" width="16" height="16" rx="4" fill="#C7C7D1"/>
  <rect x="62" y="273" width="75" height="8" rx="4" fill="#A0A0B2"/>
  
  <!-- Main content area -->
  <!-- Header bar -->
  <rect x="220" y="0" width="580" height="44" fill="#FFFFFF"/>
  <rect x="580" y="0" width="580" height="44" fill="#FFFFFF"/>
  <rect x="220" y="43" width="580" height="1" fill="#E8E8EE"/>
  
  <!-- Breadcrumb -->
  <rect x="240" y="14" width="14" height="14" rx="3" fill="#C7C7D1"/>
  <rect x="262" y="18" width="30" height="6" rx="3" fill="#C7C7D1"/>
  <rect x="298" y="18" width="8" height="6" rx="3" fill="#D0D0D8"/>
  <rect x="312" y="18" width="60" height="6" rx="3" fill="#C7C7D1"/>
  
  <!-- Content -->
  <!-- Emoji -->
  <rect x="240" y="76" width="40" height="40" rx="8" fill="#EEEEF2"/>
  <text x="260" y="103" font-size="24" text-anchor="middle" fill="#666">📄</text>
  
  <!-- Title -->
  <rect x="240" y="130" width="180" height="12" rx="6" fill="#2B2D31"/>
  <rect x="240" y="155" width="300" height="8" rx="4" fill="#B0B0C0"/>
  
  <!-- Divider -->
  <rect x="240" y="185" width="520" height="1" rx="0.5" fill="#E8E8EE"/>
  
  <!-- Content blocks -->
  <rect x="240" y="210" width="80" height="10" rx="5" fill="#3B3D4F"/>
  <rect x="240" y="235" width="520" height="8" rx="4" fill="#D0D0D8"/>
  <rect x="240" y="252" width="480" height="8" rx="4" fill="#D0D0D8"/>
  <rect x="240" y="269" width="400" height="8" rx="4" fill="#D0D0D8"/>
  
  <!-- Callout -->
  <rect x="240" y="298" width="520" height="48" rx="8" fill="#F3F0FF"/>
  <rect x="248" y="306" width="14" height="14" rx="3" fill="#C7C7D1"/>
  <rect x="272" y="310" width="460" height="8" rx="4" fill="#8B8B9E"/>
  <rect x="272" y="325" width="380" height="8" rx="4" fill="#8B8B9E"/>
  
  <!-- Block list -->
  <rect x="254" y="366" width="8" height="8" rx="2" fill="#C7C7D1"/>
  <rect x="272" y="367" width="460" height="7" rx="3.5" fill="#D0D0D8"/>
  <rect x="254" y="386" width="8" height="8" rx="2" fill="#C7C7D1"/>
  <rect x="272" y="387" width="380" height="7" rx="3.5" fill="#D0D0D8"/>
  <rect x="254" y="406" width="8" height="8" rx="2" fill="#C7C7D1"/>
  <rect x="272" y="407" width="420" height="7" rx="3.5" fill="#D0D0D8"/>
  
  <!-- Code block -->
  <rect x="240" y="440" width="520" height="70" rx="8" fill="#F4F4F5" stroke="#E0E0E6" stroke-width="1"/>
  <rect x="252" y="452" width="50" height="6" rx="3" fill="#C7C7D1"/>
  <rect x="252" y="470" width="480" height="6" rx="3" fill="#D0D0D8"/>
  <rect x="252" y="485" width="440" height="6" rx="3" fill="#D0D0D8"/>
  <rect x="252" y="500" width="360" height="6" rx="3" fill="#D0D0D8"/>
</svg>
