<svg width="227" height="62" viewBox="0 0 227 62" fill="none" xmlns="http://www.w3.org/2000/svg">
<path d="M210.117 62.0001V36.4707H227.001V40.8836H215.517V46.9013H225.921V51.1319H215.517V57.5872H227.001V62.0001H210.117Z" fill="white"/>
<path d="M194.047 62.0001V40.8836H186.74V36.4707H206.755V40.8836H199.447V62.0001H194.047Z" fill="white"/>
<path d="M163.146 62.0001L172.326 36.4707H178.517L187.697 62.0001H181.973L175.385 42.6342L168.798 62.0001H163.146ZM167.142 56.4201L168.582 52.1895H181.793L183.197 56.4201H167.142Z" fill="white"/>
<path d="M144.378 62.0001V36.4707H149.778V57.7695H160.65V62.0001H144.378Z" fill="white"/>
<path d="M121.915 62.0001V36.4707H131.706C133.77 36.4707 135.474 36.8233 136.818 37.5284C138.186 38.2335 139.206 39.206 139.878 40.446C140.55 41.6617 140.886 43.0354 140.886 44.5672C140.886 46.0017 140.562 47.3268 139.914 48.5425C139.266 49.7582 138.27 50.7429 136.926 51.4966C135.582 52.2503 133.842 52.6272 131.706 52.6272H127.314V62.0001H121.915ZM127.314 48.2507H131.346C132.762 48.2507 133.782 47.9225 134.406 47.266C135.054 46.5852 135.378 45.6856 135.378 44.5672C135.378 43.4244 135.054 42.537 134.406 41.9048C133.782 41.2484 132.762 40.9201 131.346 40.9201H127.314V48.2507Z" fill="white"/>
<path d="M89.5375 62.0001V36.4707H96.0171L103.361 51.8248L110.632 36.4707H117.076V62.0001H111.676V45.6978L105.485 58.426H101.165L94.9372 45.6978V62.0001H89.5375Z" fill="white"/>
<path d="M68.3746 62.0001V36.4707H85.2586V40.8836H73.7746V46.9013H84.1786V51.1319H73.7746V57.5872H85.2586V62.0001H68.3746Z" fill="white"/>
<path d="M52.3052 62.0001V40.8836H44.9976V36.4707H65.0125V40.8836H57.7049V62.0001H52.3052Z" fill="white"/>
<path d="M159.65 25.5294V16.7765L151.046 0H157.166L162.89 12.2541H161.882L167.569 0H173.617L165.05 16.7765V25.5294H159.65Z" fill="white"/>
<path d="M120.649 25.5294V0H127.129L134.472 15.3541L141.744 0H148.188V25.5294H142.788V9.22706L136.596 21.9553H132.276L126.049 9.22706V25.5294H120.649Z" fill="white"/>
<path d="M101.975 16.9224L101.363 0H107.159L106.547 16.9224H101.975ZM104.279 25.7118C103.295 25.7118 102.491 25.42 101.867 24.8365C101.267 24.2286 100.967 23.4992 100.967 22.6482C100.967 21.7729 101.267 21.0435 101.867 20.46C102.491 19.8522 103.295 19.5482 104.279 19.5482C105.239 19.5482 106.019 19.8522 106.619 20.46C107.219 21.0435 107.519 21.7729 107.519 22.6482C107.519 23.4992 107.219 24.2286 106.619 24.8365C106.019 25.42 105.239 25.7118 104.279 25.7118Z" fill="white"/>
<path d="M90.5758 25.5294V0H95.9756V25.5294H90.5758ZM74.7727 25.5294V0H80.1724V25.5294H74.7727ZM79.4885 14.6976V10.2847H91.4398V14.6976H79.4885Z" fill="white"/>
<path d="M58.2088 26.4047C55.737 26.4047 53.5651 25.8455 51.6932 24.7271C49.8213 23.6086 48.3454 22.0647 47.2654 20.0953C46.2095 18.1016 45.6815 15.8039 45.6815 13.2024C45.6815 10.6008 46.2095 8.31529 47.2654 6.34588C48.3454 4.35216 49.8213 2.79608 51.6932 1.67765C53.5651 0.559216 55.737 0 58.2088 0C60.6807 0 62.8646 0.559216 64.7605 1.67765C66.6564 2.79608 68.1203 4.35216 69.1522 6.34588C70.2082 8.31529 70.7362 10.6008 70.7362 13.2024C70.7362 15.8039 70.2082 18.1016 69.1522 20.0953C68.1203 22.0647 66.6564 23.6086 64.7605 24.7271C62.8646 25.8455 60.6807 26.4047 58.2088 26.4047ZM58.2088 21.4812C59.6728 21.4812 60.9207 21.1408 61.9526 20.46C63.0086 19.7792 63.8245 18.831 64.4005 17.6153C64.9765 16.3753 65.2645 14.9043 65.2645 13.2024C65.2645 11.5004 64.9765 10.0416 64.4005 8.82588C63.8245 7.58588 63.0086 6.63765 61.9526 5.98118C60.9207 5.30039 59.6728 4.96 58.2088 4.96C56.7929 4.96 55.557 5.30039 54.501 5.98118C53.4451 6.63765 52.6291 7.58588 52.0532 8.82588C51.4772 10.0416 51.1892 11.5004 51.1892 13.2024C51.1892 14.9043 51.4772 16.3753 52.0532 17.6153C52.6291 18.831 53.4451 19.7792 54.501 20.46C55.557 21.1408 56.7929 21.4812 58.2088 21.4812Z" fill="white"/>
<path d="M29.9984 0V10.1307H9.99946V51.6667H29.9984V61.7974H0V0H29.9984Z" fill="#F1B100"/>
</svg>
